<?xml version="1.0" encoding="UTF-8" standalone="no"?>
<svg
   xmlns:svg="http://www.w3.org/2000/svg"
   xmlns="http://www.w3.org/2000/svg"
   version="1.1"
   id="Calque_1"
   x="0px"
   y="0px"
   viewBox="0 0 48 48"
   enable-background="new 0 0 48 48"
   xml:space="preserve"
   ><rect
     style="fill:#744f2a"
     id="rect5"
     height="12"
     width="12"
     y="0"
     x="12" /><rect
     style="fill:#744f2a"
     id="rect7"
     height="12"
     width="12"
     y="0"
     x="36" /><rect
     style="fill:#744f2a"
     x="0"
     id="rect9"
     height="12"
     width="12"
     y="12" /><rect
     style="fill:#744f2a"
     id="rect11"
     height="12"
     width="12"
     y="12"
     x="24" /><rect
     style="fill:#744f2a"
     id="rect13"
     height="12"
     width="12"
     y="24"
     x="12" /><rect
     style="fill:#744f2a"
     id="rect15"
     height="12"
     width="12"
     y="24"
     x="36" /><rect
     style="fill:#744f2a"
     x="0"
     id="rect17"
     height="12"
     width="12"
     y="36" /><rect
     style="fill:#744f2a"
     id="rect19"
     height="12"
     width="12"
     y="36"
     x="24" /><rect
     style="fill:#e7c88b"
     x="0"
     id="rect23"
     height="12"
     width="12"
     y="0" /><rect
     style="fill:#e7c88b"
     id="rect25"
     height="12"
     width="12"
     y="0"
     x="24" /><rect
     style="fill:#e7c88b"
     id="rect27"
     height="12"
     width="12"
     y="12"
     x="12" /><rect
     style="fill:#e7c88b"
     id="rect29"
     height="12"
     width="12"
     y="12"
     x="36" /><rect
     style="fill:#e7c88b"
     x="0"
     id="rect31"
     height="12"
     width="12"
     y="24" /><rect
     style="fill:#e7c88b"
     id="rect33"
     height="12"
     width="12"
     y="24"
     x="24" /><rect
     style="fill:#e7c88b"
     id="rect35"
     height="12"
     width="12"
     y="36"
     x="12" /><rect
     style="fill:#e7c88b"
     id="rect37"
     height="12"
     width="12"
     y="36"
     x="36" /></svg>
